<svg width="380" height="265" viewBox="0 0 380 265" fill="none" xmlns="http://www.w3.org/2000/svg">
<path d="M190.417 132.687C190.486 132.687 190.545 132.663 190.594 132.615C190.643 132.566 190.667 132.507 190.667 132.437C190.667 132.367 190.642 132.308 190.591 132.26C190.541 132.212 190.48 132.187 190.409 132.187L190.446 132.15C190.454 132.142 190.458 132.133 190.458 132.121C190.458 132.109 190.454 132.099 190.446 132.092C190.438 132.084 190.429 132.08 190.417 132.08C190.405 132.08 190.395 132.084 190.388 132.092L190.279 132.2C190.275 132.204 190.272 132.209 190.271 132.214C190.269 132.218 190.268 132.224 190.268 132.229C190.268 132.235 190.269 132.24 190.271 132.245C190.272 132.25 190.275 132.254 190.279 132.258L190.388 132.367C190.395 132.374 190.405 132.378 190.416 132.379C190.428 132.379 190.438 132.375 190.446 132.367C190.454 132.359 190.458 132.349 190.458 132.338C190.458 132.327 190.455 132.317 190.447 132.308L190.411 132.271C190.459 132.271 190.499 132.287 190.533 132.319C190.567 132.352 190.584 132.391 190.584 132.437C190.584 132.483 190.567 132.523 190.535 132.555C190.502 132.588 190.463 132.604 190.417 132.604C190.377 132.604 190.342 132.592 190.312 132.567C190.282 132.543 190.263 132.511 190.254 132.474C190.252 132.464 190.246 132.455 190.239 132.448C190.231 132.441 190.222 132.437 190.213 132.437C190.2 132.437 190.189 132.442 190.18 132.452C190.172 132.461 190.169 132.472 190.171 132.483C190.181 132.542 190.21 132.591 190.255 132.63C190.301 132.668 190.355 132.687 190.417 132.687ZM190.417 132.833C190.359 132.833 190.305 132.822 190.254 132.8C190.204 132.779 190.16 132.749 190.122 132.711C190.085 132.674 190.055 132.63 190.033 132.579C190.011 132.528 190 132.474 190 132.417C190 132.359 190.011 132.305 190.033 132.254C190.055 132.203 190.085 132.159 190.122 132.122C190.16 132.084 190.204 132.055 190.254 132.033C190.305 132.011 190.359 132 190.417 132C190.475 132 190.529 132.011 190.579 132.033C190.63 132.055 190.674 132.084 190.712 132.122C190.749 132.159 190.779 132.203 190.801 132.254C190.823 132.305 190.834 132.359 190.834 132.417C190.834 132.474 190.823 132.528 190.801 132.579C190.779 132.63 190.749 132.674 190.712 132.711C190.674 132.749 190.63 132.779 190.579 132.8C190.529 132.822 190.475 132.833 190.417 132.833Z" fill="black"/>
</svg>
