<svg width="40" height="41" viewBox="0 0 40 41" fill="none" xmlns="http://www.w3.org/2000/svg">
<path d="M20 15.4985C19.0581 15.4988 18.1375 15.7785 17.3546 16.302C16.5716 16.8255 15.9615 17.5694 15.6013 18.4397C15.2411 19.31 15.147 20.2675 15.331 21.1912C15.515 22.1149 15.9687 22.9633 16.6348 23.6292C17.3009 24.2951 18.1495 24.7485 19.0733 24.9321C19.9971 25.1157 20.9546 25.0213 21.8247 24.6608C22.6949 24.3003 23.4386 23.6899 23.9618 22.9067C24.485 22.1236 24.7643 21.2028 24.7643 20.261C24.7633 18.9979 24.261 17.7868 23.3677 16.8938C22.4744 16.0008 21.2631 15.499 20 15.4985ZM31.1348 11.8378C30.8924 11.2233 30.5263 10.6653 30.0592 10.1982C29.5921 9.73116 29.0341 9.36504 28.4196 9.12259C26.5446 8.38241 22.0804 8.54849 20 8.54849C17.9196 8.54849 13.4598 8.37616 11.5795 9.12259C10.965 9.36504 10.407 9.73116 9.93991 10.1982C9.47285 10.6653 9.10674 11.2233 8.86429 11.8378C8.125 13.7128 8.29018 18.1815 8.29018 20.2601C8.29018 22.3387 8.125 26.8021 8.86786 28.6833C9.11031 29.2977 9.47642 29.8558 9.94349 30.3229C10.4106 30.7899 10.9686 31.156 11.583 31.3985C13.458 32.1387 17.9223 31.9726 20.0036 31.9726C22.0848 31.9726 26.5429 32.1449 28.4232 31.3985C29.0376 31.156 29.5957 30.7899 30.0628 30.3229C30.5298 29.8558 30.8959 29.2977 31.1384 28.6833C31.8839 26.8083 31.7125 22.3396 31.7125 20.261C31.7125 18.1824 31.8839 13.7199 31.1384 11.8387L31.1348 11.8378ZM20 27.5824C18.552 27.5824 17.1364 27.153 15.9324 26.3485C14.7284 25.544 13.79 24.4006 13.2359 23.0628C12.6817 21.725 12.5368 20.2529 12.8193 18.8326C13.1017 17.4124 13.799 16.1079 14.823 15.084C15.8469 14.06 17.1514 13.3627 18.5717 13.0802C19.9919 12.7977 21.464 12.9427 22.8018 13.4969C24.1396 14.051 25.2831 14.9894 26.0875 16.1934C26.892 17.3974 27.3214 18.8129 27.3214 20.261C27.3226 21.2228 27.134 22.1754 26.7665 23.0642C26.399 23.953 25.8597 24.7605 25.1797 25.4406C24.4996 26.1207 23.692 26.66 22.8032 27.0275C21.9144 27.395 20.9618 27.5836 20 27.5824ZM27.6232 14.3413C27.2852 14.3415 26.9547 14.2414 26.6735 14.0538C26.3924 13.8661 26.1732 13.5993 26.0437 13.287C25.9143 12.9748 25.8803 12.6311 25.9461 12.2996C26.012 11.968 26.1746 11.6634 26.4136 11.4243C26.6526 11.1852 26.9571 11.0224 27.2886 10.9564C27.6201 10.8904 27.9638 10.9242 28.2761 11.0535C28.5884 11.1828 28.8554 11.4018 29.0432 11.6829C29.231 11.9639 29.3313 12.2944 29.3313 12.6324C29.3322 12.8569 29.2888 13.0793 29.2036 13.287C29.1184 13.4947 28.993 13.6835 28.8346 13.8426C28.6763 14.0017 28.488 14.128 28.2808 14.2142C28.0735 14.3004 27.8513 14.3448 27.6268 14.3449L27.6232 14.3413ZM35.7143 0.260986H4.28571C3.14907 0.260986 2.05898 0.712516 1.25526 1.51624C0.451529 2.31997 0 3.41006 0 4.5467L0 35.9753C0 37.1119 0.451529 38.202 1.25526 39.0057C2.05898 39.8095 3.14907 40.261 4.28571 40.261H35.7143C36.8509 40.261 37.941 39.8095 38.7447 39.0057C39.5485 38.202 40 37.1119 40 35.9753V4.5467C40 3.41006 39.5485 2.31997 38.7447 1.51624C37.941 0.712516 36.8509 0.260986 35.7143 0.260986ZM34.1857 26.1538C34.0705 28.4422 33.5482 30.4699 31.8777 32.136C30.2071 33.8021 28.1812 34.3351 25.8955 34.444C23.5375 34.5771 16.4679 34.5771 14.1098 34.444C11.8214 34.3288 9.80089 33.8056 8.12768 32.136C6.45446 30.4663 5.92857 28.4378 5.81964 26.1538C5.68661 23.7949 5.68661 16.7244 5.81964 14.3681C5.93482 12.0797 6.45089 10.0521 8.12768 8.38599C9.80446 6.71991 11.8304 6.19313 14.1098 6.0842C16.4679 5.95116 23.5375 5.95116 25.8955 6.0842C28.1839 6.19938 30.2107 6.72259 31.8777 8.39224C33.5446 10.0619 34.0768 12.0905 34.1857 14.3788C34.3187 16.7288 34.3187 23.7931 34.1857 26.1538Z" fill="white"/>
</svg>
