<svg width="30" height="33" viewBox="0 0 30 33" fill="none" xmlns="http://www.w3.org/2000/svg">
<path d="M18.3347 2.03205C18.3994 1.77468 18.5546 1.5553 18.7669 1.42125C18.9791 1.2872 19.2313 1.24923 19.4691 1.31554C21.7032 1.96826 23.7403 3.24779 25.3762 5.02589C27.012 6.804 28.1892 9.01822 28.7897 11.4467C28.822 11.5747 28.8305 11.7084 28.8148 11.8401C28.799 11.9717 28.7593 12.0986 28.6979 12.2134C28.6366 12.3282 28.5548 12.4285 28.4574 12.5086C28.36 12.5887 28.2488 12.6468 28.1305 12.6797L27.9006 12.713C27.6969 12.7127 27.4991 12.6389 27.3382 12.5032C27.1773 12.3675 27.0623 12.1776 27.0114 11.9632C26.4915 9.87608 25.4778 7.97334 24.0712 6.44438C22.6645 4.91541 20.914 3.81355 18.9938 3.24845C18.7604 3.178 18.5612 3.01183 18.4383 2.78493C18.3153 2.55804 18.2782 2.28813 18.3347 2.03205ZM17.7215 8.39732C18.8104 8.72136 19.803 9.34814 20.6014 10.2159C21.3997 11.0837 21.9763 12.1626 22.2745 13.3462C22.3254 13.5606 22.4403 13.7505 22.6012 13.8862C22.7621 14.0219 22.9599 14.0957 23.1636 14.0961L23.3935 14.0628C23.6282 13.9887 23.8275 13.8193 23.9503 13.5897C24.073 13.3601 24.1097 13.0879 24.0527 12.8297C23.674 11.3047 22.9339 9.9144 21.9063 8.79748C20.8788 7.68056 19.5997 6.87611 18.1967 6.46441C17.9591 6.40248 17.7087 6.44236 17.4975 6.57578C17.2863 6.7092 17.1304 6.92591 17.0623 7.18092C17.0017 7.43723 17.037 7.70919 17.1606 7.9372C17.2842 8.16521 17.4858 8.33067 17.7215 8.39732ZM29.9854 24.7437C29.7285 26.9159 28.7528 28.9121 27.2407 30.3595C25.7286 31.8068 23.7834 32.6063 21.7686 32.6087C9.7652 32.6087 0 21.9944 0 8.9472C0.00216684 6.75716 0.737733 4.64287 2.0693 2.99926C3.40087 1.35566 5.23737 0.295145 7.23575 0.0158246C7.69559 -0.0426862 8.1605 0.0619994 8.56111 0.314257C8.96172 0.566516 9.27655 0.95282 9.4586 1.41552L12.5399 9.23048C12.6797 9.58407 12.7374 9.96957 12.708 10.3531C12.6786 10.7366 12.563 11.1064 12.3713 11.43L9.81119 15.6624C9.78588 15.7101 9.77131 15.7637 9.76864 15.8187C9.76598 15.8737 9.7753 15.9286 9.79586 15.979C10.9734 18.6033 12.9277 20.7217 15.3453 21.9944C15.3922 22.0172 15.4439 22.0262 15.4951 22.0204C15.5462 22.0145 15.5951 21.994 15.6366 21.961L19.4844 19.1783C19.7792 18.9631 20.119 18.8319 20.4727 18.797C20.8263 18.762 21.1823 18.8244 21.508 18.9783L28.6977 22.3276C29.1234 22.5255 29.4788 22.8677 29.7109 23.3031C29.943 23.7386 30.0393 24.2439 29.9854 24.7437ZM28.1612 24.4938C28.1664 24.4243 28.1515 24.3548 28.1185 24.295C28.0855 24.2352 28.0361 24.1882 27.9772 24.1605L20.7875 20.8113C20.7399 20.7914 20.6888 20.7841 20.6381 20.7899C20.5875 20.7956 20.5388 20.8144 20.4962 20.8446L16.6637 23.6273C16.3534 23.8489 15.9961 23.9805 15.6259 24.0097C15.2556 24.0388 14.8846 23.9646 14.5481 23.794C11.7597 22.3184 9.5044 19.8729 8.14022 16.8455C7.98091 16.4841 7.90991 16.0843 7.93408 15.6844C7.95824 15.2846 8.07675 14.8982 8.27819 14.5626L10.823 10.3302C10.8533 10.2851 10.8722 10.232 10.8776 10.1764C10.883 10.1208 10.8747 10.0647 10.8536 10.0136L7.7723 2.19868C7.74879 2.1401 7.71027 2.0901 7.66135 2.05465C7.61242 2.0192 7.55515 1.99978 7.49636 1.99872H7.4657C5.91303 2.22057 4.48711 3.04706 3.45249 4.32486C2.41787 5.60266 1.8448 7.24502 1.8396 8.9472C1.84366 14.691 3.94462 20.1982 7.68114 24.2596C11.4177 28.3211 16.4843 30.6047 21.7686 30.6091C23.3346 30.6035 24.8455 29.9806 26.0211 28.856C27.1967 27.7314 27.9571 26.1815 28.1612 24.4938Z" fill="black"/>
</svg>
