<svg width="30" height="34" viewBox="0 0 30 34" fill="none" xmlns="http://www.w3.org/2000/svg">
<path d="M18.3347 2.62116C18.3994 2.3638 18.5546 2.14442 18.7669 2.01037C18.9791 1.87632 19.2313 1.83835 19.4691 1.90465C21.7032 2.55737 23.7403 3.8369 25.3762 5.61501C27.012 7.39311 28.1892 9.60734 28.7897 12.0358C28.822 12.1638 28.8305 12.2975 28.8148 12.4292C28.799 12.5608 28.7593 12.6877 28.6979 12.8025C28.6366 12.9173 28.5548 13.0177 28.4574 13.0977C28.36 13.1778 28.2488 13.2359 28.1305 13.2688L27.9006 13.3022C27.6969 13.3018 27.4991 13.228 27.3382 13.0923C27.1773 12.9566 27.0623 12.7667 27.0114 12.5523C26.4915 10.4652 25.4778 8.56245 24.0712 7.03349C22.6645 5.50452 20.914 4.40266 18.9938 3.83756C18.7604 3.76712 18.5612 3.60094 18.4383 3.37405C18.3153 3.14715 18.2782 2.87724 18.3347 2.62116ZM17.7215 8.98644C18.8104 9.31047 19.803 9.93725 20.6014 10.805C21.3997 11.6728 21.9763 12.7517 22.2745 13.9354C22.3254 14.1497 22.4403 14.3396 22.6012 14.4753C22.7621 14.611 22.9599 14.6848 23.1636 14.6852L23.3935 14.6519C23.6282 14.5778 23.8275 14.4084 23.9503 14.1788C24.073 13.9492 24.1097 13.677 24.0527 13.4188C23.674 11.8938 22.9339 10.5035 21.9063 9.38659C20.8788 8.26967 19.5997 7.46522 18.1967 7.05353C17.9591 6.99159 17.7087 7.03147 17.4975 7.16489C17.2863 7.29831 17.1304 7.51502 17.0623 7.77004C17.0017 8.02634 17.037 8.2983 17.1606 8.52631C17.2842 8.75432 17.4858 8.91979 17.7215 8.98644ZM29.9854 25.3329C29.7285 27.505 28.7528 29.5012 27.2407 30.9486C25.7286 32.3959 23.7834 33.1954 21.7686 33.1978C9.7652 33.1978 0 22.5835 0 9.53632C0.00216684 7.34627 0.737733 5.23198 2.0693 3.58838C3.40087 1.94477 5.23737 0.884256 7.23575 0.604936C7.69559 0.546425 8.1605 0.651111 8.56111 0.903369C8.96172 1.15563 9.27655 1.54193 9.4586 2.00463L12.5399 9.81959C12.6797 10.1732 12.7374 10.5587 12.708 10.9422C12.6786 11.3257 12.563 11.6955 12.3713 12.0191L9.81119 16.2515C9.78588 16.2992 9.77131 16.3528 9.76864 16.4078C9.76598 16.4628 9.7753 16.5178 9.79586 16.5681C10.9734 19.1924 12.9277 21.3108 15.3453 22.5835C15.3922 22.6064 15.4439 22.6153 15.4951 22.6095C15.5462 22.6036 15.5951 22.5832 15.6366 22.5501L19.4844 19.7674C19.7792 19.5522 20.119 19.421 20.4727 19.3861C20.8263 19.3511 21.1823 19.4135 21.508 19.5675L28.6977 22.9167C29.1234 23.1146 29.4788 23.4568 29.7109 23.8922C29.943 24.3277 30.0393 24.833 29.9854 25.3329ZM28.1612 25.0829C28.1664 25.0134 28.1515 24.9439 28.1185 24.8841C28.0855 24.8243 28.0361 24.7773 27.9772 24.7497L20.7875 21.4004C20.7399 21.3805 20.6888 21.3732 20.6381 21.379C20.5875 21.3848 20.5388 21.4035 20.4962 21.4337L16.6637 24.2164C16.3534 24.438 15.9961 24.5696 15.6259 24.5988C15.2556 24.6279 14.8846 24.5537 14.5481 24.3831C11.7597 22.9075 9.5044 20.462 8.14022 17.4346C7.98091 17.0732 7.90991 16.6734 7.93408 16.2735C7.95824 15.8737 8.07675 15.4873 8.27819 15.1518L10.823 10.9193C10.8533 10.8742 10.8722 10.8212 10.8776 10.7655C10.883 10.7099 10.8747 10.6538 10.8536 10.6027L7.7723 2.78779C7.74879 2.72921 7.71027 2.67921 7.66135 2.64376C7.61242 2.60831 7.55515 2.58889 7.49636 2.58784H7.4657C5.91303 2.80968 4.48711 3.63617 3.45249 4.91397C2.41787 6.19177 1.8448 7.83413 1.8396 9.53632C1.84366 15.2801 3.94462 20.7873 7.68114 24.8487C11.4177 28.9102 16.4843 31.1938 21.7686 31.1982C23.3346 31.1926 24.8455 30.5697 26.0211 29.4451C27.1967 28.3205 27.9571 26.7706 28.1612 25.0829Z" fill="white"/>
</svg>
