<svg width="40" height="41" viewBox="0 0 40 41" fill="none" xmlns="http://www.w3.org/2000/svg">
<path d="M20 8.36813C13.5089 8.36813 8.23214 13.6449 8.22321 20.136C8.22321 22.3592 8.84822 24.5288 10.0268 26.3949L10.3036 26.8413L9.11607 31.1806L13.5714 30.011L14 30.2699C15.8036 31.3413 17.875 31.9128 19.9911 31.9128H20C26.4821 31.9128 31.9018 26.636 31.9018 20.1449C31.9018 17.0021 30.5446 14.0467 28.3214 11.8235C26.0893 9.59134 23.1429 8.36813 20 8.36813ZM26.9196 25.1896C26.625 26.0199 25.2143 26.7699 24.5357 26.8681C23.4107 27.0378 22.5357 26.9485 20.2946 25.9842C16.75 24.4485 14.4286 20.8771 14.25 20.6449C14.0714 20.4128 12.8036 18.7253 12.8036 16.9842C12.8036 15.2431 13.7143 14.386 14.0446 14.0288C14.3661 13.6717 14.75 13.5824 14.9911 13.5824C15.2232 13.5824 15.4643 13.5824 15.6696 13.5913C15.8839 13.6003 16.1786 13.511 16.4643 14.1985C16.7589 14.9038 17.4643 16.6449 17.5536 16.8235C17.6429 17.0021 17.7054 17.2074 17.5804 17.4396C16.9018 18.7967 16.1786 18.7431 16.5446 19.3681C17.9107 21.7163 19.2768 22.5288 21.3571 23.5735C21.7143 23.7521 21.9196 23.7253 22.125 23.4842C22.3304 23.2521 23.0089 22.4485 23.2411 22.1003C23.4732 21.7431 23.7143 21.8056 24.0357 21.9217C24.3571 22.0378 26.0982 22.8949 26.4554 23.0735C26.8125 23.2521 27.0446 23.3413 27.1339 23.4842C27.2143 23.6538 27.2143 24.3681 26.9196 25.1896ZM35.7143 0.260986H4.28571C1.91964 0.260986 0 2.18063 0 4.5467V35.9753C0 38.3413 1.91964 40.261 4.28571 40.261H35.7143C38.0804 40.261 40 38.3413 40 35.9753V4.5467C40 2.18063 38.0804 0.260986 35.7143 0.260986ZM19.9911 34.2967C17.6161 34.2967 15.2857 33.6985 13.2232 32.5735L5.71429 34.5467L7.72321 27.2074C6.48214 25.0646 5.83036 22.6271 5.83036 20.1271C5.83929 12.3235 12.1875 5.97527 19.9911 5.97527C23.7768 5.97527 27.3304 7.44849 30.0089 10.1271C32.6786 12.8056 34.2857 16.3592 34.2857 20.1449C34.2857 27.9485 27.7946 34.2967 19.9911 34.2967Z" fill="white"/>
</svg>
